:SAMPLES-PER-SECOND 30
:FULLY-SPECIFIED
:DEGREES
16
root  -83.1463 37.2828 1.59622 -153.298 77.4837 -147.742
RightUpLeg  -20.1741 -0.530557 10.6527
RightLeg  33.485 1.89896 -5.72991
RightFoot  -7.7014 0.271959 -5.68545
RightToes  1.16415e-010 -3.18055e-015 8.94531e-016
Spine  3.1653 -5.97325 -0.421195
Spine1  13.2367 -8.96618 11.6936
HEad  -19.2498 0.599851 3.94973
LeftShoulder1  0 -2.69403e-036 -1.28585e-037
LeftArm  -8.20461 18.5322 -87.5929
LeftForeArm  -15.2855 -15.966 1.16654
LeftHand  0.800696 6.1249 3.12074
RightShoulder  -2.48481e-017 0 -8.08114e-019
RightArm  -0.536936 -44.9925 84.3634
RightForeArm  -31.6441 18.0752 -7.71348
RightHand  1.69933 -13.4566 -5.97877
LeftUpLeg  -8.14013 -8.55398 10.5902
LeftLeg  64.0591 -9.49435 5.85961
LeftFoot  12.6894 0.825989 -3.40302
LeftToes  4.502e-010 -1.85808e-011 5.37561e-011
17
root  -81.572 37.6232 1.59489 -153.515 78.4397 -147.749
RightUpLeg  -16.2816 1.08273 10.68
RightLeg  31.9189 0.787769 -6.11171
RightFoot  -9.51139 0.169739 -5.27696
RightToes  1.16415e-010 -3.18055e-015 8.94531e-016
Spine  3.23117 -4.81432 1.26411
Spine1  13.673 -7.07749 9.4272
HEad  -19.1543 -0.649635 4.47321
LeftShoulder1  0 -2.69403e-036 -1.28585e-037
LeftArm  -18.8856 22.0239 -87.1566
LeftForeArm  -5.10734 -8.04702 -3.99128
LeftHand  0.838778 6.26241 1.63505
RightShoulder  -2.48481e-017 0 -8.08114e-019
RightArm  12.3316 -39.4953 86.284
RightForeArm  -46.8121 20.5616 -16.766
RightHand  1.79223 -13.6248 -7.01114
LeftUpLeg  -13.4613 -8.70693 8.60171
LeftLeg  64.1127 -10.8842 2.61162
LeftFoot  11.3892 0.736813 -3.19159
LeftToes  4.502e-010 -1.85808e-011 5.37561e-011
18
root  -79.9543 38.0042 1.58689 -152.844 79.9055 -147.153
RightUpLeg  -12.1349 3.12792 10.6449
RightLeg  29.4396 -0.192207 -6.08543
RightFoot  -10.8935 0.0996203 -4.92825
RightToes  1.16415e-010 -3.18055e-015 8.94531e-016
Spine  2.60582 -3.44348 2.8113
Spine1  14.4741 -4.9637 6.9455
HEad  -18.9529 -2.23495 5.35692
LeftShoulder1  0 -2.69403e-036 -1.28585e-037
LeftArm  -21.8675 25.6661 -86.2763
LeftForeArm  -0.851038 -3.17706 -5.58372
LeftHand  0.946141 6.91128 -0.400901
RightShoulder  -2.48481e-017 0 -8.08114e-019
RightArm  16.8011 -34.0882 86.3716
RightForeArm  -49.1579 22.9154 -22.0328
RightHand  1.85666 -13.6454 -7.95417
LeftUpLeg  -17.9592 -7.85725 6.80765
LeftLeg  60.7386 -11.3728 0.935528
LeftFoot  8.9415 0.822999 -4.05193
LeftToes  4.502e-010 -1.85808e-011 5.37561e-011
19
root  -78.3065 38.3842 1.56654 -152.123 81.6484 -146.59
RightUpLeg  -7.82284 5.26608 10.4637
RightLeg  26.4448 -1.02662 -5.74967
RightFoot  -12.1323 0.0445242 -4.66235
RightToes  1.16415e-010 -3.18055e-015 8.94531e-016
Spine  2.0027 -2.06282 3.98493
Spine1  14.9233 -2.87791 4.4371
HEad  -18.6242 -3.54113 6.02341
LeftShoulder1  0 -2.69403e-036 -1.28585e-037
LeftArm  -21.1139 29.9092 -84.663
LeftForeArm  1.8902 -2.2254 -5.75365
LeftHand  1.08236 8.01485 -2.55713
RightShoulder  -2.48481e-017 0 -8.08114e-019
RightArm  15.5867 -28.7476 85.4625
RightForeArm  -44.0376 26.0323 -24.0036
RightHand  1.85389 -13.4611 -8.40427
LeftUpLeg  -21.4608 -6.61933 5.14693
LeftLeg  54.289 -10.777 1.16567
LeftFoot  6.4806 0.926108 -5.17041
LeftToes  4.502e-010 -1.85808e-011 5.37561e-011
20
root  -76.6818 38.6385 1.53226 -150.823 83.4107 -145.438
RightUpLeg  -3.73057 7.03974 10.2534
RightLeg  23.6847 -1.57392 -5.29417
RightFoot  -13.3887 -0.00565035 -4.50549
RightToes  1.16415e-010 -3.18055e-015 8.94531e-016
Spine  1.82583 -0.770903 4.85777
Spine1  14.8191 -0.987232 2.21518
HEad  -18.2967 -4.32016 6.21715
LeftShoulder1  0 -2.69403e-036 -1.28585e-037
LeftArm  -18.2208 34.7732 -82.3603
LeftForeArm  3.19699 -2.68505 -5.81939
LeftHand  1.1528 8.83595 -4.62545
RightShoulder  -2.48481e-017 0 -8.08114e-019
RightArm  15.6941 -23.543 84.3023
RightForeArm  -41.5698 28.5275 -25.8262
RightHand  1.83875 -13.3787 -8.39612
LeftUpLeg  -24.0576 -5.48633 3.76195
LeftLeg  45.7106 -9.52732 1.77555
LeftFoot  5.25766 0.90462 -5.40007
LeftToes  4.502e-010 -1.85808e-011 5.37561e-011
21
root  -75.0627 38.7242 1.48023 -144.131 85.0614 -139.032
RightUpLeg  -0.0744321 7.87378 10.2404
RightLeg  21.3553 -1.19513 -4.75567
RightFoot  -14.5575 -0.0536345 -4.67012
RightToes  1.16415e-010 -3.18055e-015 8.94531e-016
Spine  1.39659 0.513245 5.94368
Spine1  14.923 0.802103 0.258274
HEad  -17.9362 -5.02231 6.31795
LeftShoulder1  0 -2.69403e-036 -1.28585e-037
LeftArm  -13.7077 39.7364 -79.5714
LeftForeArm  2.14129 -3.24865 -6.12349
LeftHand  1.15012 9.01585 -6.10668
RightShoulder  -2.48481e-017 0 -8.08114e-019
RightArm  16.0185 -18.4415 83.0486
RightForeArm  -40.8795 30.3404 -27.1675
RightHand  1.84916 -13.4644 -8.32207
LeftUpLeg  -25.7583 -4.34251 2.9176
LeftLeg  35.42 -8.37478 1.61776
LeftFoot  4.74585 0.830153 -5.10702
LeftToes  4.502e-010 -1.85808e-011 5.37561e-011
22
root  -73.4 38.7145 1.3955 -124.391 86.2785 -119.742
RightUpLeg  3.46967 7.07564 10.2454
RightLeg  18.8225 0.872119 -3.93008
RightFoot  -15.6849 -0.115194 -5.34505
RightToes  1.16415e-010 -3.18055e-015 8.94531e-016
Spine  0.177966 1.80856 7.64377
Spine1  15.8 2.6088 -1.77224
HEad  -17.4246 -5.81487 6.50397
LeftShoulder1  0 -2.69403e-036 -1.28585e-037
LeftArm  -9.39938 44.5079 -76.3561
LeftForeArm  -0.0965274 -3.6626 -6.37049
LeftHand  1.13518 8.93798 -6.70001
RightShoulder  -2.48481e-017 0 -8.08114e-019
RightArm  16.3953 -13.5898 81.9203
RightForeArm  -40.5724 31.3915 -27.9683
RightHand  1.86193 -13.5298 -8.3422
LeftUpLeg  -26.4533 -3.51682 2.84999
LeftLeg  23.5098 -7.16669 0.826798
LeftFoot  4.67617 0.866847 -5.35603
LeftToes  4.502e-010 -1.85808e-011 5.37561e-011
23
root  -71.7048 38.6452 1.27328 -95.3407 86.4969 -91.1133
RightUpLeg  7.15752 5.11085 9.89285
RightLeg  15.9891 4.10984 -2.77747
RightFoot  -16.8891 -0.191092 -5.96618
RightToes  1.16415e-010 -3.18055e-015 8.94531e-016
Spine  -1.2445 2.97359 9.73167
Spine1  17.0436 4.3517 -3.89955
HEad  -16.7127 -6.43151 6.53675
LeftShoulder1  0 -2.69403e-036 -1.28585e-037
LeftArm  -6.82553 49.0479 -72.754
LeftForeArm  -1.74236 -3.49619 -6.42818
LeftHand  1.13272 8.91834 -6.58977
RightShoulder  -2.48481e-017 0 -8.08114e-019
RightArm  16.8651 -9.27765 80.9814
RightForeArm  -40.0446 31.7733 -28.2913
RightHand  1.86025 -13.5093 -8.37193
LeftUpLeg  -26.3462 -2.61494 3.04685
LeftLeg  11.0444 -5.98518 0.312415
LeftFoot  4.88108 0.992873 -6.06938
LeftToes  4.502e-010 -1.85808e-011 5.37561e-011
24
root  -70.0066 38.4392 1.12799 -72.4428 85.7249 -68.4725
RightUpLeg  10.5318 3.73391 9.45174
RightLeg  14.2378 6.77447 -1.81119
RightFoot  -18.1115 -0.243257 -5.73066
RightToes  1.16415e-010 -3.18055e-015 8.94531e-016
Spine  -2.01689 3.90883 11.6417
Spine1  17.9916 5.86891 -5.61054
HEad  -15.9024 -6.85656 6.41873
LeftShoulder1  0 -2.69403e-036 -1.28585e-037
LeftArm  -6.33194 53.0852 -69.1188
LeftForeArm  -1.83039 -3.35971 -6.04459
LeftHand  1.13697 8.90856 -6.24719
RightShoulder  -2.48481e-017 0 -8.08114e-019
RightArm  17.4148 -5.76672 80.1249
RightForeArm  -39.609 31.8278 -28.3611
RightHand  1.85515 -13.469 -8.40345
LeftUpLeg  -26.2638 -1.28418 3.22799
LeftLeg  1.01974 -4.59328 0.12252
LeftFoot  3.69816 1.02195 -6.72972
LeftToes  4.502e-010 -1.85808e-011 5.37561e-011
25
root  -68.3058 38.0526 0.967749 -59.456 84.6634 -55.6335
RightUpLeg  12.9531 4.10673 9.26059
RightLeg  14.9041 7.72531 -1.34485
RightFoot  -19.4834 -0.265544 -4.88436
RightToes  1.16415e-010 -3.18055e-015 8.94531e-016
Spine  -2.04126 4.62401 12.8081
Spine1  18.5798 7.04984 -6.55591
HEad  -15.2202 -7.1853 6.45775
LeftShoulder1  0 -2.69403e-036 -1.28585e-037
LeftArm  -7.14832 56.2971 -66.1485
LeftForeArm  -1.43178 -3.44792 -5.35666
LeftHand  1.13929 8.87245 -5.97249
RightShoulder  -2.48481e-017 0 -8.08114e-019
RightArm  17.769 -3.13898 79.4607
RightForeArm  -39.2459 31.8381 -28.3927
RightHand  1.85248 -13.4177 -8.50424
LeftUpLeg  -26.9269 -0.462406 3.6721
LeftLeg  -3.51011 -2.2438 -0.227405
LeftFoot  1.05693 0.900125 -7.04795
LeftToes  4.502e-010 -1.85808e-011 5.37561e-011
26
root  -66.572 37.5036 0.776679 -50.0394 84.0002 -46.2808
RightUpLeg  14.3158 4.9369 8.42386
RightLeg  18.1949 8.17225 -0.703964
RightFoot  -21.7369 -0.294995 -4.006
RightToes  1.16415e-010 -3.18055e-015 8.94531e-016
Spine  -1.56073 4.98252 12.8389
Spine1  18.9835 7.7431 -6.98144
HEad  -14.8451 -7.11287 6.70031
LeftShoulder1  0 -2.69403e-036 -1.28585e-037
LeftArm  -8.33806 58.5856 -64.3867
LeftForeArm  -1.81735 -3.35948 -4.78418
LeftHand  1.13824 8.80055 -5.54844
RightShoulder  -2.48481e-017 0 -8.08114e-019
RightArm  17.3373 -1.3839 79.4177
RightForeArm  -38.3353 31.8936 -28.4952
RightHand  1.84279 -13.3102 -8.65493
LeftUpLeg  -28.3833 -0.359764 3.6719
LeftLeg  -1.8268 0.0352588 -0.00992777
LeftFoot  0.41589 0.771935 -6.28522
LeftToes  4.502e-010 -1.85808e-011 5.37561e-011
27
root  -64.826 36.8053 0.547685 -41.6888 84.0369 -37.7663
RightUpLeg  14.7491 3.13402 5.55807
RightLeg  24.1037 11.1437 0.994969
RightFoot  -24.3665 -0.222763 -2.48012
RightToes  1.16415e-010 -3.18055e-015 8.94531e-016
Spine  -0.266315 4.82354 11.6938
Spine1  18.9902 7.77063 -7.15626
HEad  -14.8802 -6.42652 6.93333
LeftShoulder1  0 -2.69403e-036 -1.28585e-037
LeftArm  -9.77294 59.5968 -64.1596
LeftForeArm  -2.38493 -3.00387 -4.49305
LeftHand  1.12935 8.60209 -4.65595
RightShoulder  -2.48481e-017 0 -8.08114e-019
RightArm  15.5272 -0.547152 80.1
RightForeArm  -36.7328 32.2624 -28.8869
RightHand  1.81524 -13.124 -8.74854
LeftUpLeg  -30.6049 -1.45305 3.2963
LeftLeg  4.8154 1.93026 1.25737
LeftFoot  4.60394 0.610703 -3.87874
LeftToes  4.502e-010 -1.85808e-011 5.37561e-011
28
root  -63.2198 35.9889 0.316142 -34.1989 84.6113 -29.7085
RightUpLeg  13.8552 -0.143954 1.48905
RightLeg  33.5183 15.0577 3.88684
RightFoot  -23.7907 0.0690739 0.580988
RightToes  1.16415e-010 -3.18055e-015 8.94531e-016
Spine  2.57536 4.32196 9.63952
Spine1  18.3631 7.20103 -6.93315
HEad  -15.5532 -5.58649 7.13015
LeftShoulder1  0 -2.69403e-036 -1.28585e-037
LeftArm  -12.0135 58.4526 -65.8883
LeftForeArm  -2.17924 -1.9722 -4.60803
LeftHand  1.1164 8.36998 -3.54509
RightShoulder  -2.48481e-017 0 -8.08114e-019
RightArm  12.4307 -0.538679 80.9471
RightForeArm  -35.282 33.4198 -29.897
RightHand  1.77896 -12.9234 -8.74337
LeftUpLeg  -33.5729 -2.46607 2.62031
LeftLeg  14.2624 2.22116 2.94834
LeftFoot  10.9325 0.18638 -0.767208
LeftToes  4.502e-010 -1.85808e-011 5.37561e-011
